<svg xmlns="http://www.w3.org/2000/svg" viewBox="0 0 32 32" fill="none">
  <rect width="32" height="32" rx="6" fill="#ffffff"/>
  <g transform="translate(4.5 4.5) scale(0.72)">
    <path
      d="M17.5 6C9.5 6 6.5 11.5 6.5 15.5C6.5 20.8 11.4 24.5 17.5 24.5c3.5 0 6.5-1.2 8.7-3.5"
      fill="none"
      stroke="#41c8c6"
      stroke-width="4.2"
      stroke-linecap="round"
    />
    <path d="M23.5 5.9h1.9" stroke="#41c8c6" stroke-width="4.2" stroke-linecap="round"/>
    <g transform="translate(17 2.5)">
      <rect x="0" y="4" width="5" height="5" rx="1.4" transform="rotate(-45 0 4)" fill="#53bda7"/>
      <rect x="4" y="4" width="5" height="5" rx="1.4" transform="rotate(-45 4 4)" fill="#4caaa0"/>
      <rect x="0" y="8" width="5" height="5" rx="1.4" transform="rotate(-45 0 8)" fill="#f5be3c"/>
      <rect x="4" y="8" width="5" height="5" rx="1.4" transform="rotate(-45 4 8)" fill="#f1c54b"/>
    </g>
  </g>
</svg>
